<svg width="172" height="30" viewBox="0 0 172 30" fill="none" xmlns="http://www.w3.org/2000/svg">
<path d="M12.953 10.031C13.7334 8.98267 14.1974 7.68288 14.1974 6.27979C14.1974 2.81748 11.3799 0 7.91836 0H5.85641C2.62256 0 0.000779283 2.62178 0.000779283 5.85563V16.5911H0V25.0864H0.000779283V25.1172H0.00116952L0.0218318 25.1036L2.70872 23.403C4.22175 24.8069 6.24159 25.6638 8.46416 25.6638C13.1327 25.6638 16.9279 21.869 16.9279 17.2004C16.9279 14.181 15.3385 11.5218 12.953 10.031ZM3.82293 6.08214C3.82293 4.83421 4.83421 3.82253 6.08253 3.82253H7.91836C8.03844 3.82253 8.15266 3.83345 8.26806 3.85021C9.4579 4.01902 10.3752 5.0459 10.3752 6.27979C10.3752 7.44819 9.55653 8.42517 8.46416 8.67663C8.2895 8.71484 8.10393 8.73666 7.91836 8.73666H3.82293V6.08214ZM9.80565 21.6463V21.6467C9.80098 21.6479 9.79591 21.6495 9.79084 21.651C9.73314 21.6682 9.67466 21.6845 9.61579 21.6994C8.12772 22.0912 6.85211 21.9107 6.21898 21.766C6.21313 21.7649 6.20728 21.7633 6.20144 21.7621C6.1952 21.7606 6.18896 21.759 6.18272 21.7578C6.12931 21.7458 6.07707 21.7325 6.026 21.7185C6.01431 21.7153 6.003 21.7122 5.99247 21.7095C5.98429 21.7072 5.97688 21.7052 5.96947 21.7029C5.96596 21.7021 5.96245 21.7009 5.95895 21.6998C5.92854 21.6912 5.90203 21.6834 5.87981 21.6764C5.87474 21.6748 5.86928 21.6732 5.86421 21.6717C5.85758 21.6693 5.85096 21.6674 5.84511 21.6655C5.84238 21.6647 5.83965 21.6639 5.83692 21.6631C5.83536 21.6627 5.8338 21.6619 5.83224 21.6615C5.82601 21.6596 5.82016 21.6577 5.81548 21.6561C5.81119 21.6545 5.80729 21.6534 5.803 21.6518C5.7995 21.651 5.79677 21.6499 5.79482 21.6491C5.79365 21.6487 5.79287 21.6487 5.79248 21.6483C5.79209 21.6483 5.79209 21.6483 5.79209 21.6483C4.26307 21.1333 3.89661 19.9325 3.82293 19.1852C3.7855 18.8082 3.82293 18.547 3.82293 18.547V12.5588H8.46416C8.55694 12.5588 8.64466 12.5588 8.73706 12.5647C11.1725 12.7066 13.1054 14.7326 13.1054 17.2004C13.1054 19.294 11.7148 21.069 9.80565 21.6463Z" fill="white"/>
<path d="M19.4492 7.04937V24.1621H23.7412V7.04937H19.4492ZM23.5283 0.819087C22.993 0.272899 22.349 0 21.5954 0C20.8418 0 20.1974 0.267444 19.6625 0.802716C19.1327 1.3376 18.8652 1.98203 18.8652 2.73562C18.8652 3.52196 19.1327 4.19368 19.6734 4.74532C20.2087 5.29151 20.8636 5.56987 21.6227 5.56987C22.3654 5.56987 23.0039 5.29697 23.5392 4.75624C24.069 4.22097 24.3365 3.56562 24.3365 2.80151C24.3365 2.02569 24.0686 1.36528 23.5283 0.819087Z" fill="white"/>
<path d="M53.2225 9.67441C52.8186 8.76254 52.1578 8.01987 51.235 7.45185C50.3122 6.88929 49.2421 6.60547 48.0246 6.60547C46.8449 6.60547 45.7638 6.86746 44.7701 7.39181C43.7818 7.91617 42.9463 8.68029 42.2637 9.6904C41.7397 8.68029 41.0462 7.91578 40.1834 7.39181C39.3206 6.86746 38.3597 6.60547 37.2895 6.60547C36.2303 6.60547 35.2474 6.80196 34.3519 7.20078C33.4564 7.59921 32.6374 8.20544 31.9056 9.01361V7.04796H27.6133V24.1607H31.9052V16.5433C31.9052 14.8997 32.0471 13.6931 32.3368 12.9285C32.626 12.164 33.0631 11.5687 33.6471 11.143C34.2315 10.7173 34.8814 10.5044 35.5964 10.5044C36.2349 10.5044 36.7811 10.6736 37.2345 11.012C37.6875 11.3449 38.0263 11.8584 38.2501 12.541C38.4739 13.2291 38.5885 14.3375 38.5885 15.8716V24.1603H42.9132V16.4337C42.9132 14.801 43.0551 13.6108 43.3389 12.8736C43.6227 12.1309 44.0543 11.5523 44.6387 11.1372C45.2172 10.7169 45.878 10.504 46.6098 10.504C47.5762 10.504 48.2971 10.8479 48.7832 11.536C49.2639 12.2241 49.5041 13.5344 49.5041 15.4782V24.1603H53.8287V14.1242C53.8284 12.0662 53.6264 10.5863 53.2225 9.67441Z" fill="white"/>
<path d="M70.547 7.04796V8.93174C69.7825 8.15632 68.9525 7.57777 68.0515 7.18986C67.1505 6.80196 66.1841 6.60547 65.1576 6.60547C62.93 6.60547 61.0349 7.45185 59.4735 9.13914C57.9117 10.8264 57.1309 12.9886 57.1309 15.6314C57.1309 18.1815 57.939 20.3108 59.5499 22.0254C61.1663 23.74 63.0773 24.5973 65.289 24.5973C66.2718 24.5973 67.1837 24.4227 68.0301 24.073C68.871 23.7182 69.7119 23.1447 70.5474 22.3475L74.8447 24.1603V7.04757H70.547V7.04796ZM69.4059 19.2575C68.5158 20.1966 67.3965 20.666 66.0476 20.666C64.7428 20.666 63.645 20.1912 62.7499 19.2356C61.8544 18.2801 61.4119 17.0626 61.4119 15.5881C61.4119 14.1196 61.8485 12.918 62.7276 11.9789C63.6068 11.0397 64.7097 10.5699 66.0367 10.5699C67.3911 10.5699 68.5158 11.0284 69.4059 11.9516C70.2959 12.8744 70.7384 14.081 70.7384 15.5718C70.738 17.0895 70.2959 18.3179 69.4059 19.2575Z" fill="white"/>
<path d="M102.638 12.4271H90.9963V16.5608H97.6959C97.057 17.926 96.216 18.9252 95.1677 19.5693C94.1249 20.2083 92.8418 20.5248 91.3183 20.5248C88.9811 20.5248 87.01 19.7494 85.4155 18.1986C83.821 16.6481 83.0237 14.753 83.0237 12.5199C83.0237 10.3578 83.7882 8.52311 85.3278 7.01593C86.8677 5.50329 88.7733 4.7497 91.0505 4.7497C93.666 4.7497 95.9537 5.78711 97.9139 7.86192L101.016 4.79882C99.6012 3.26435 98.1544 2.18328 96.6745 1.55522C94.9217 0.812547 93.0434 0.441406 91.0286 0.441406C87.1792 0.441406 84.0557 1.78991 81.653 4.48187C79.6273 6.74771 78.6172 9.41277 78.6172 12.4704C78.6172 14.7039 79.1634 16.7896 80.2608 18.7171C81.3583 20.6445 82.8436 22.1353 84.7274 23.1782C86.6112 24.221 88.7515 24.7399 91.1542 24.7399C93.3986 24.7399 95.3533 24.2647 97.0188 23.3092C98.6897 22.3536 100.044 20.972 101.092 19.1592C102.14 17.3409 102.665 15.4243 102.665 13.3986L102.638 12.4271Z" fill="white"/>
<path d="M116.966 7.04688V15.4284C116.966 17.0447 116.874 18.0985 116.699 18.5901C116.453 19.2509 116.087 19.7531 115.585 20.0918C115.088 20.4306 114.482 20.6053 113.767 20.6053C113.051 20.6053 112.446 20.4306 111.959 20.0868C111.468 19.7371 111.113 19.2513 110.895 18.6287C110.676 18.0061 110.562 16.8923 110.562 15.2869V7.04727H106.221V14.173C106.221 16.9087 106.39 18.7924 106.728 19.8299C107.198 21.3316 108.011 22.5 109.175 23.3409C110.332 24.1764 111.85 24.5966 113.723 24.5966C115.454 24.5966 116.879 24.2364 118.004 23.521C119.123 22.8002 119.975 21.7737 120.554 20.4306C121.024 19.3277 121.258 17.2853 121.258 14.2986V7.04727H116.966V7.04688Z" fill="white"/>
<path d="M125.097 7.04937V24.1621H129.388V7.04937H125.097ZM129.181 0.819087C128.64 0.272899 127.996 0 127.242 0C126.489 0 125.85 0.267444 125.315 0.802716C124.78 1.3376 124.518 1.98203 124.518 2.73562C124.518 3.52196 124.785 4.19368 125.32 4.74532C125.861 5.29151 126.511 5.56987 127.275 5.56987C128.018 5.56987 128.657 5.29697 129.186 4.75624C129.721 4.22097 129.989 3.56562 129.989 2.80151C129.989 2.02569 129.721 1.36528 129.181 0.819087Z" fill="white"/>
<path d="M145.922 0.441796V8.93247C145.157 8.15704 144.322 7.57849 143.421 7.19059C142.52 6.80268 141.559 6.60619 140.533 6.60619C138.3 6.60619 136.404 7.45257 134.849 9.13986C133.287 10.8272 132.506 12.9893 132.506 15.6321C132.506 18.1822 133.314 20.3116 134.925 22.0262C136.536 23.7407 138.447 24.598 140.658 24.598C141.641 24.598 142.558 24.4234 143.399 24.0737C144.246 23.7189 145.081 23.1454 145.922 22.3482L150.214 24.161V0.441406H145.922V0.441796ZM144.775 19.2582C143.891 20.1973 142.772 20.6667 141.423 20.6667C140.117 20.6667 139.015 20.1919 138.124 19.2363C137.229 18.2808 136.781 17.0633 136.781 15.5889C136.781 14.1203 137.224 12.9187 138.097 11.9796C138.976 11.0404 140.079 10.5706 141.406 10.5706C142.766 10.5706 143.89 11.0291 144.775 11.9523C145.665 12.8751 146.108 14.0817 146.108 15.5725C146.108 17.0902 145.665 18.3186 144.775 19.2582Z" fill="white"/>
<path d="M171.718 16.0283C171.718 13.1999 170.872 10.9231 169.185 9.19763C167.497 7.47213 165.308 6.60938 162.611 6.60938C160.072 6.60938 157.964 7.47213 156.282 9.19763C154.595 10.9231 153.754 13.0911 153.754 15.7008C153.754 18.2509 154.6 20.3693 156.288 22.0621C157.975 23.7548 160.164 24.6012 162.845 24.6012C164.576 24.6012 166.073 24.2956 167.328 23.6839C168.589 23.0671 169.671 22.1221 170.572 20.8446L166.952 19.1464C165.8 20.2656 164.418 20.8282 162.818 20.8282C161.475 20.8282 160.372 20.468 159.504 19.7526C158.641 19.0317 158.106 18.0653 157.909 16.8478H171.702L171.718 16.0283ZM158.095 13.4673C158.581 12.4081 159.105 11.6709 159.673 11.2502C160.574 10.5785 161.628 10.2401 162.824 10.2401C163.927 10.2401 164.893 10.5403 165.729 11.1411C166.564 11.7364 167.126 12.5118 167.411 13.4673H158.095Z" fill="white"/>
<path d="M13.2797 25.9264C11.7506 26.7837 9.98693 27.2695 8.11407 27.2695C6.05563 27.2695 4.13364 26.6851 2.50638 25.6641L0 27.2477C2.24986 28.9732 5.0615 29.9996 8.11407 29.9996C10.9861 29.9996 13.6453 29.0878 15.8293 27.5424L13.2797 25.9264Z" fill="#0691FC"/>
<path d="M3.82327 10.1542V9.81641C3.82327 9.81641 3.78585 9.95465 3.82327 10.1542Z" fill="white"/>
<path d="M9.78994 11.4595C9.79501 11.4587 9.80008 11.4579 9.80475 11.4572V11.457C9.79969 11.4579 9.79501 11.4587 9.78994 11.4595ZM5.87891 11.4729C5.90113 11.4766 5.92764 11.4808 5.95805 11.4853C5.93154 11.4814 5.90503 11.4773 5.87891 11.4729Z" fill="white"/>
<path d="M5.95805 11.485C5.92764 11.4805 5.90113 11.4764 5.87891 11.4727C5.90503 11.477 5.93154 11.4811 5.95805 11.485Z" fill="white"/>
<path d="M9.80655 11.457V11.4572C9.80165 11.4579 9.79633 11.4588 9.79102 11.4596C9.79633 11.4588 9.80124 11.4579 9.80655 11.457Z" fill="white"/>
</svg>
